<?xml version="1.0" encoding="utf-8"?>
<!-- Generator: Adobe Illustrator 19.0.1, SVG Export Plug-In . SVG Version: 6.00 Build 0)  -->
<svg version="1.1" id="Слой_1" xmlns="http://www.w3.org/2000/svg" xmlns:xlink="http://www.w3.org/1999/xlink" x="0px" y="0px"
	 viewBox="0 0 427 256" style="enable-background:new 0 0 427 256;" xml:space="preserve">
<g>
	<path d="M419.2,45H415h-8.5H405h0V23h-22V0H0v211h22v23h22v3.8v4.2v8.5v4.2v1.2h383V45H419.2z M286.9,84.6c-6,0-9.8,3.3-9.8,11.9
		v64.9c0,8.6,3.8,11.7,9.8,11.7c6,0,9.8-3.1,9.8-11.7v-22.2h-8.6V122h26.5v38.1c0,19.2-9.6,30.2-28.2,30.2s-28.2-11-28.2-30.2V97.6
		c0-19.2,9.6-30.2,28.2-30.2s28.2,11,28.2,30.2v11.7h-17.9V96.4C296.7,87.8,292.9,84.6,286.9,84.6z M248.3,189H229
		c-0.9-2.4-1.4-4.1-1.7-9.4c-3.3,7-9.1,10.8-17.5,10.8c-13.9,0-21-9.8-21-27.5v-12.2c0-12.2,3.8-21.1,13.1-25.3
		c-8.9-3.8-13.1-11.9-13.1-24.7v-2.2c0-19.2,9.3-29.7,28.2-29.7h21.6V86h-21.3c-6,0-9.6,3.1-9.6,11.7v7.4c0,9.6,4.3,12.7,11.3,12.7
		h8.2v-13.4h18.9v13.4h5v17.2h-5v39.5C246.2,180.3,246.4,184.5,248.3,189z M175.1,68.8V189h-19.4l-23.5-87.1V189h-17V68.8h23.7
		l19.4,72v-72H175.1z M3,208V3h377v20H22v185H3z M47,251.8L64.7,234h-4.2L47,247.5V239l5-5h-4.2l-0.8,0.8V234h358V48h7l-7,7v4.2
		L416.2,48h7.8v0.7l-19,19v4.2l19-19v8.5l-19,19v4.2l19-19v8.5l-19,19v4.2l19-19v8.5l-19,19v4.2l19-19v8.5l-19,19v4.2l19-19v8.5
		l-19,19v4.2l19-19v8.5l-19,19v4.2l19-19v8.5l-19,19v4.2l19-19v8.5l-19,19v4.2l19-19v8.5l-19,19v4.2l19-19v8.5l-19,19v4.2l19-19v8.5
		l-19,19v4.2l19-19v8.5l-19,19v4.2l19-19v8.5l-19,19v0.8h-0.8l-19,19h-8.5l19-19h-4.2l-19,19h-8.5l19-19h-4.2l-19,19h-8.5l19-19H366
		l-19,19h-8.5l19-19h-4.2l-19,19h-8.5l19-19h-4.2l-19,19H313l19-19h-4.2l-19,19h-8.5l19-19h-4.2l-19,19h-8.5l19-19h-4.2l-19,19h-8.5
		l19-19h-4.2l-19,19h-8.5l19-19h-4.2l-19,19h-8.5l19-19h-4.2l-19,19h-8.5l19-19h-4.2l-19,19h-8.5l19-19h-4.2l-19,19h-8.5l19-19H226
		l-19,19h-8.5l19-19h-4.2l-19,19h-8.5l19-19h-4.2l-19,19H173l19-19h-4.2l-19,19h-8.5l19-19h-4.2l-19,19h-8.5l19-19h-4.2l-19,19h-8.5
		l19-19h-4.2l-19,19h-8.5l19-19h-4.2l-19,19h-8.5l19-19h-4.2l-19,19h-8.5l19-19h-4.2l-19,19h-8.5l19-19h-4.2l-19,19h-8.5l19-19H86
		l-19,19h-8.5l19-19h-4.2l-19,19H47V251.8z M423.3,253h-8.5l9.1-9.1v8.5L423.3,253z M410.6,253h-8.5l21.9-21.9v8.5L410.6,253z
		 M397.9,253h-8.5l34.6-34.6v8.5L397.9,253z"/>
	<path d="M207.7,150.2v11.2c0,8.6,3.8,11.8,9.8,11.8c5.7,0,9.4-2.9,9.8-10.5v-27.8h-7.2C211.5,134.9,207.7,139,207.7,150.2z"/>
</g>
</svg>
